<svg xmlns="http://www.w3.org/2000/svg" xml:space="preserve" viewBox="0 0 645.1 121.1">
  <path fill="#fff" d="M424.7 78.5h.2l24.3-64.9h6.2L428 85.7h-6.5l-27.4-72.1h6.3l24.3 64.9zm45.9-60.6c0-2.4-2-4.2-4.2-4.2-2 0-4.1 1.7-4.1 4.2s2 4.2 4.1 4.2c2.1 0 4.2-1.8 4.2-4.2zm-1.4 18h-5.6v49.9h5.6V35.9zm43.4 8c-3-5.2-9-8-15.9-8-8.2 0-16.1 4.1-16.1 13.2 0 17.6 27.5 9.8 27.5 22.7 0 6.6-5.8 9.3-11.7 9.3-5.8 0-10.9-3.1-13.6-7.3l-4.4 3.2c4.1 6 10.9 8.8 18 8.8 8.6 0 17.1-4.3 17.1-14.3 0-7.7-5.8-11.4-15.8-13.6-7.8-1.7-11.9-3.6-11.9-9 0-5.9 5.7-8.2 10.7-8.2 5.3 0 9.5 2.5 11.9 6.5l4.2-3.3zm18.7-26.1c0-2.4-2-4.2-4.2-4.2-2 0-4.1 1.7-4.1 4.2s2 4.2 4.1 4.2c2.2 0 4.2-1.8 4.2-4.2zm-1.2 18.1h-5.9v49.8h5.9V35.9zM589 60.7c0-14.4-10.2-24.9-25-24.9-14.6 0-24.9 10.4-24.9 24.9 0 14.3 10.2 25 24.9 25 14.8 0 25-10.7 25-25zm-5.7 0c0 11.3-7.4 20-19.3 20-11.8 0-19.2-8.7-19.2-20s7.4-20.1 19.2-20.1c11.9.1 19.3 8.9 19.3 20.1zm14.9-24.8c.3 3.2.4 9.5.4 12.1v37.7h5.6V60.4c0-13.2 7.4-19.8 15.7-19.8 10.5 0 13.4 7.7 13.4 17.1v28.1h5.5V55.7c0-11.2-5.3-19.7-17.7-19.7-7.1 0-14.2 4.2-17 10.7h-.2c0-2.5-.2-8-.4-10.7h-5.3zM6.3 85.6h10.6c19.8 0 36-16.2 36-36s-16.2-36-36-36H6.3v72zm102.4-72H98.1c-19.8 0-36 16.2-36 36s16.2 36 36 36h10.6v-72zm83.8 36c0 19.9-16.1 36-36 36h-26v-72h26c19.9 0 36 16.2 36 36zm-10.9 0c0-13.8-11.3-25.1-25.1-25.1h-15.1v50.2h15.1c13.9 0 25.1-11.2 25.1-25.1zM248 60.7c0 13.8-11.2 24.9-24.9 24.9s-24.9-11.2-24.9-24.9 11.2-24.9 24.9-24.9S248 46.9 248 60.7zm-9.9 0c0-8.3-6.8-15-15-15s-15 6.7-15 15 6.7 15 15 15c8.2 0 15-6.7 15-15zm16.9 25h11V13.6h-11v72.1zm70.3-25c0 13.8-11.2 24.9-24.9 24.9-5.3 0-10.2-1.7-14.3-4.5v4.5h-10.9V13.5h10.9v26.7c4-2.8 9-4.5 14.3-4.5 13.7.1 24.9 11.3 24.9 25zm-9.9 0c0-8.3-6.8-15-15-15-6.6 0-12.3 4.3-14.3 10.3-.5 1.5-.8 3.1-.8 4.7 0 1.7.3 3.2.8 4.7 2 6 7.6 10.3 14.3 10.3 8.2 0 15-6.7 15-15zm49.9-24.8-14.2 32-14.2-32H325l20.2 45.4-4.9 11.1c-1.3 2.9-4.8 4.3-7.7 3l-1.6-.7-4.4 9.9 3.8 1.7c7.1 3.2 15.5-.1 18.6-7.2 0-.1 25.8-57.7 28.3-63.2h-12z"/>
</svg>
