<svg xmlns="http://www.w3.org/2000/svg" xml:space="preserve" viewBox="0 0 383.9 153.6">
  <path fill="#fff" d="M113.6 139.6h.1l9.8-26.8h4.9l-12.8 32.7h-4.2l-12.7-32.7h5.1l9.8 26.8zm30.6-26.8h-4.6v32.7h4.6v-32.7zm34.3 3.5c-1-1.1-2.3-1.9-3.8-2.6-1.6-.6-3.3-1-5.1-.9-1.3 0-2.6.2-3.9.5-1.3.3-2.4.9-3.4 1.6-1 .7-1.8 1.7-2.5 2.8-.6 1.1-.9 2.5-.9 4 0 1.4.2 2.6.7 3.6.5 1 1.1 1.8 1.9 2.4.8.7 1.6 1.2 2.6 1.6 1 .4 2 .8 3 1.1 1 .3 1.9.6 2.8.9.9.3 1.7.7 2.4 1.1.7.4 1.2 1 1.6 1.6.4.6.6 1.4.6 2.4 0 .9-.2 1.7-.6 2.4-.4.7-.9 1.2-1.5 1.7-.6.4-1.3.8-2 1-.7.2-1.5.3-2.2.3-1.4 0-2.8-.3-4-1-1.2-.7-2.2-1.5-3-2.6l-3.4 2.9c1.2 1.5 2.7 2.6 4.6 3.4 1.8.8 3.7 1.1 5.7 1.1 1.4 0 2.7-.2 4-.6 1.3-.4 2.5-1 3.4-1.8 1-.8 1.8-1.8 2.4-3 .6-1.2.9-2.6.9-4.2s-.3-2.8-.9-3.8c-.6-1-1.3-1.9-2.2-2.5-.9-.7-1.9-1.2-3-1.6-1.1-.4-2.2-.8-3.2-1.1-.9-.3-1.7-.6-2.5-.8-.8-.3-1.5-.6-2-1-.6-.4-1-.9-1.4-1.4-.3-.6-.5-1.3-.5-2.1 0-.9.2-1.6.5-2.3.4-.6.8-1.2 1.4-1.6.6-.4 1.2-.7 2-.9.7-.2 1.4-.3 2.1-.3 1.3 0 2.5.3 3.6.8s1.9 1.2 2.5 2.1l3.3-3.2zm19.4-3.5h-4.6v32.7h4.6v-32.7zm45.5 9.6c-.8-2-2-3.7-3.5-5.2-1.5-1.4-3.2-2.5-5.2-3.3s-4.2-1.2-6.6-1.2c-2.4 0-4.6.4-6.6 1.2-2 .8-3.8 1.9-5.2 3.3-1.5 1.4-2.6 3.1-3.4 5.2-.8 2-1.2 4.2-1.2 6.7 0 2.4.4 4.6 1.2 6.6.8 2 2 3.7 3.4 5.2 1.5 1.5 3.2 2.6 5.2 3.4 2 .8 4.2 1.2 6.6 1.2 2.4 0 4.6-.4 6.6-1.2 2-.8 3.8-1.9 5.2-3.4 1.5-1.5 2.6-3.2 3.5-5.2.8-2 1.3-4.2 1.3-6.6 0-2.4-.5-4.7-1.3-6.7zm-4.3 11.6c-.6 1.5-1.4 2.9-2.4 4s-2.3 2-3.7 2.7c-1.5.6-3.1 1-4.9 1-1.8 0-3.4-.3-4.8-1-1.4-.6-2.7-1.5-3.7-2.7-1-1.1-1.8-2.5-2.4-4-.6-1.5-.8-3.2-.8-4.9 0-1.7.3-3.3.8-4.8.6-1.5 1.3-2.8 2.4-4 1-1.1 2.2-2 3.7-2.7 1.5-.7 3.1-1 4.9-1 1.8 0 3.5.3 4.9 1 1.5.7 2.7 1.6 3.7 2.7s1.8 2.5 2.4 4c.6 1.5.8 3.1.8 4.8-.1 1.7-.3 3.4-.9 4.9zm24.4-21.2h-6v32.7h4.6v-26.7h.1l17.3 26.7h5.8v-32.7h-4.6v26.1h-.1l-17.1-26.1zM6.5 80h10.6c19.8 0 36-16.2 36-36S37 8 17.2 8H6.5v72zM109 8H98.3c-19.8 0-36 16.2-36 36s16.2 36 36 36H109V8zm83.8 36c0 19.9-16.1 36-36 36h-26V8h26c19.8 0 36 16.2 36 36zm-10.9 0c0-13.8-11.3-25.1-25.1-25.1H141.7v50.2H156.8c13.8 0 25.1-11.3 25.1-25.1zm66.3 11.1c0 13.8-11.2 24.9-24.9 24.9-13.8 0-24.9-11.2-24.9-24.9s11.2-24.9 24.9-24.9 24.9 11.2 24.9 24.9zm-9.9 0c0-8.3-6.8-15-15-15-8.3 0-15 6.7-15 15s6.7 15 15 15c8.2 0 15-6.7 15-15zm17 25h10.9V8h-10.9v72.1zm70.2-25c0 13.8-11.2 24.9-24.9 24.9-5.3 0-10.2-1.7-14.3-4.5V80h-10.9V7.9h10.9v26.7c4-2.8 9-4.5 14.3-4.5 13.7.1 24.9 11.3 24.9 25zm-9.9 0c0-8.3-6.8-15-15-15-6.6 0-12.3 4.3-14.3 10.3-.5 1.5-.8 3.1-.8 4.7 0 1.7.3 3.2.8 4.7 2 6 7.6 10.3 14.3 10.3 8.2 0 15-6.7 15-15zm49.9-24.9-14.2 32-14.2-32h-11.9l20.2 45.4-.4.9-.1.3-4.4 9.9v.1c-1.3 2.9-4.8 4.3-7.7 3l-1.6-.7-3.1 6.8-1.4 3 3.8 1.7c7.1 3.2 15.5-.1 18.6-7.2 0-.1 25.8-57.7 28.3-63.2h-11.9z"/>
</svg>
