<svg xmlns="http://www.w3.org/2000/svg" xml:space="preserve" id="圖層_1" x="0" y="0" version="1.1" viewBox="0 0 120.2 120.2">
  <style>
    .st2{fill:#1c080e}
  </style>
  <linearGradient id="SVGID_1_" x1="-.0036" x2="119.5471" y1=".0036" y2="119.5543" gradientUnits="userSpaceOnUse">
    <stop offset=".0911" stop-color="#ffe477"/>
    <stop offset=".5008" stop-color="#a87d24"/>
    <stop offset=".5031" stop-color="#d09b31"/>
    <stop offset=".8986" stop-color="#502508"/>
    <stop offset=".9087" stop-color="#714514"/>
  </linearGradient>
  <path fill="url(#SVGID_1_)" d="M0 0h120.2v120.2H0z"/>
  <linearGradient id="SVGID_00000127001913340926676820000003010059432394338433_" x1="1.0824" x2="119.5491" y1="1.0855" y2="119.5531" gradientUnits="userSpaceOnUse">
    <stop offset="0" stop-color="#faf9d0"/>
    <stop offset=".4035" stop-color="#f9d83c"/>
    <stop offset="1" stop-color="#e3a000"/>
  </linearGradient>
  <path fill="url(#SVGID_00000127001913340926676820000003010059432394338433_)" d="M.9.9h118.3v118.3H.9z"/>
  <path d="M100 85.7c-4 0-6.1 3.8-6.1 8.2 0 4.4 2.2 8.1 6.1 8.1 3.9 0 6.1-3.6 6.1-8.2-.1-4.2-2.1-8.1-6.1-8.1zm-36.7 0c-1.3 0-2.1.1-2.7.2v15.8c.5.1 1.4.1 2.2.1 5.2 0 8.3-2.9 8.3-8.5.1-4.7-2.7-7.6-7.8-7.6z" class="st2"/>
  <path d="M4.9 58.9v56.6h110.4V58.9c-56 30.2-110.4 0-110.4 0zm20 45.9-2-6.3h-7l-1.9 6.3h-4l7-22.1h5.1l7.1 22.1h-4.3zm26.6-9.9c0 6.8-3.5 9.8-8.8 9.8-5.1 0-8.4-2.8-8.4-9.8V82.3h4v12.9c0 4.3 1.8 6.3 4.5 6.3 2.9 0 4.6-2 4.6-6.3V82.3h4v12.6zm20.4 7.2c-2.2 2-5.7 3-9.9 3-2.3 0-4.1-.1-5.4-.3V83.1c1.8-.3 4-.5 6.4-.5 4.1 0 6.9.8 8.9 2.6 2.2 1.7 3.5 4.4 3.5 8.1 0 3.9-1.4 6.9-3.5 8.8zm12.6 2.5h-4V82.5h4v22.1zm15.3.6c-6.3 0-10.2-4.8-10.2-11.2 0-6.8 4.3-11.6 10.5-11.6 6.4 0 10.2 4.9 10.2 11.2-.1 7.4-4.5 11.6-10.5 11.6z" class="st2"/>
  <path d="M19.4 86c-.4 1.3-.7 2.8-1.1 4.1l-1.7 5.4h5.6l-1.7-5.4c-.4-1.3-.7-2.9-1.1-4.1z" class="st2"/>
  <linearGradient id="SVGID_00000137825867248735765600000002807316204794575756_" x1="4.8891" x2="115.3148" y1="64.7046" y2="64.7046" gradientUnits="userSpaceOnUse">
    <stop offset="0" stop-color="#502508"/>
    <stop offset=".2796" stop-color="#f3b53a"/>
    <stop offset=".5041" stop-color="#ffdb49"/>
    <stop offset=".6136" stop-color="#fff9bc"/>
    <stop offset=".7416" stop-color="#f9d83c"/>
    <stop offset="1" stop-color="#502508"/>
  </linearGradient>
  <path fill="url(#SVGID_00000137825867248735765600000002807316204794575756_)" d="M4.9 57.1V59s54.4 30.2 110.4 0v-1.9c-56 30.2-110.4 0-110.4 0z"/>
  <path stroke="#000" stroke-miterlimit="10" stroke-width=".449" d="M35.3 25h3.5v26.1h-3.5zm-5.9 26.1h-3.5V35.6H13.4v15.5H10V16h3.5v15.9H26V16h3.5v35.1zm9.4-30.2h-3.5v-4.8h3.5v4.8zm12.1 17.3h-8.6v-3.7h8.6v3.7zm7.3-2.3v15.2h-3.5v-35H64c2.8 0 5 .9 6.4 2.6 1.5 1.7 2.2 4.2 2.2 7.4 0 1.8-.3 3.4-1 4.7-.7 1.3-1.7 2.4-3 3.2 1.4.6 2.4 1.6 3 3 .6 1.4.9 3.2.9 5.2v3.3c0 1.1.1 2.1.3 2.9.2.9.5 1.6.9 2.1v.6h-3.6c-.5-.5-.8-1.3-.9-2.4-.1-1.1-.2-2.2-.2-3.3v-3.2c0-1.9-.4-3.4-1.2-4.6-.8-1.2-1.9-1.7-3.3-1.7h-6.3zm0-3.7h5.5c2 0 3.4-.5 4.2-1.5.9-1 1.3-2.6 1.3-4.7 0-2-.4-3.5-1.3-4.6-.8-1.1-2.1-1.6-3.9-1.6h-5.8v12.4zm27.7 19.4c-2.7 0-4.8-1.2-6.3-3.6-1.6-2.4-2.4-5.6-2.4-9.4v-1.1c0-3.7.8-6.8 2.4-9.3 1.6-2.5 3.5-3.7 5.7-3.7 2.6 0 4.5 1.1 5.8 3.2 1.3 2.1 2 4.9 2 8.5v3H80.8l-.1.1c0 2.5.5 4.5 1.4 6.2.9 1.6 2.1 2.4 3.8 2.4 1.2 0 2.2-.2 3.1-.7.9-.5 1.7-1.1 2.3-1.9l1.4 3.1c-.7.9-1.6 1.7-2.7 2.3-1.2.6-2.5.9-4.1.9zm-.5-23.3c-1.2 0-2.2.7-3 2-.8 1.3-1.3 3-1.5 5v.1h8.8v-.6c0-1.9-.4-3.4-1.1-4.7-.7-1.2-1.8-1.8-3.2-1.8zm22.8 15.9c0-1-.3-1.9-.9-2.6-.6-.7-1.7-1.3-3.3-1.8-2.3-.7-4.1-1.6-5.2-2.8-1.2-1.2-1.8-2.8-1.8-4.8 0-2.1.7-3.9 2-5.4 1.3-1.5 3-2.2 5.1-2.2 2.2 0 4 .8 5.3 2.3 1.3 1.6 1.9 3.5 1.9 5.7v.1H108c0-1.1-.3-2.2-1.1-3.1-.7-.9-1.6-1.4-2.8-1.4-1.2 0-2.1.4-2.7 1.1-.6.7-.9 1.6-.9 2.7 0 1 .3 1.8.8 2.4.5.6 1.6 1.1 3.2 1.6 2.4.7 4.2 1.7 5.4 2.9 1.2 1.2 1.8 2.8 1.8 4.9 0 2.3-.7 4.2-2.1 5.6-1.4 1.4-3.2 2.1-5.4 2.1-2.4 0-4.4-.8-5.7-2.5-1.4-1.7-2.1-3.7-2-5.9V43h3.3c.1 1.7.5 2.9 1.4 3.7.9.8 1.9 1.2 3 1.2 1.2 0 2.2-.3 2.9-1 .7-.7 1.1-1.6 1.1-2.7z"/>
</svg>
