<svg xmlns="http://www.w3.org/2000/svg" viewBox="0 0 144 144">
  <path fill="none" d="M0 0h144v144H0z"/>
  <path fill="#f7266b" d="M72.13 44.35c-30.11 0-54.87 25.17-54.87 56h12c0-24.16 19.28-43.92 42.88-43.92s43.11 19.76 43.11 43.92l11.5-.09c-.01-30.83-24.51-55.91-54.62-55.91Zm0 17.74c-20.56 0-36.88 17.21-36.88 38.26h12c0-14.38 10.83-26.18 24.88-26.18S97.24 86 97.24 100.35h12c0-21.05-16.55-38.26-37.11-38.26Zm0 18.25c-10.72 0-18.88 9-18.88 20h12c0-4.31 2.67-7.92 6.88-7.92s7.12 3.61 7.12 7.92h12c-.01-10.97-8.39-20-19.12-20Z" data-name="fill h"/>
</svg>
