<svg xmlns="http://www.w3.org/2000/svg" viewBox="0 0 144 144">
  <path fill="none" d="M0 0h144v144H0z"/>
  <path fill="#f7266b" d="M79 56.39V24.53H65.06v31.86C42.67 59.45 28 78.29 28 101.39a24.73 24.73 0 0 0 .21 2.79h12.95a22.44 22.44 0 0 1-.58-2.79c0-16.18 9.05-30.12 24.48-33.06v6c-10.31 2.74-17.25 12.19-17.25 23.31a24.19 24.19 0 0 0 48.38 0c0-11.12-6.89-20.57-17.2-23.33v-6c15.43 2.94 24.43 16.88 24.43 33.06a24.29 24.29 0 0 1-.53 2.79h13s.16-1.55.16-2.79C116 78.29 101.38 59.45 79 56.39Zm4.62 41.25A11.61 11.61 0 1 1 72 86.09a11.59 11.59 0 0 1 11.61 11.55Zm-18.06.14A6.45 6.45 0 1 0 72 91.36a6.43 6.43 0 0 0-6.45 6.42Z" data-name="fill h"/>
</svg>
