<svg xmlns="http://www.w3.org/2000/svg" xml:space="preserve" viewBox="0 0 263.3 81.6">
  <path d="M176.7 55.2c-4.4 0-7 2.4-7 5.9v.1c0 3.4 2.7 6 7.1 6 4.4 0 7-2.5 7-6v-.1c0-3.4-2.6-5.9-7.1-5.9M248.1 38h-5.8c-.7 0-1.1-.6-1.2-1.2-.2-3.7-1.8-7.6-4.5-10.3-2.7-2.7-5.7-4.3-10-4.7-.8-.1-1.3-.6-1.3-1.3v-5.4c0-.6.5-1.1 1.1-1.1 6.1 0 11.9 2.4 16.2 6.7 4.3 4.3 6.7 10 6.7 16.1 0 .6-.6 1.2-1.2 1.2"/>
  <path d="M262.2 38h-6.6c-.6 0-1.1-.5-1.1-1.1 0-7.5-2.9-14.5-8.2-19.8-5.3-5.3-12.3-8.2-19.8-8.2-.6 0-1.1-.5-1.1-1.1V1.1c0-.3.1-.6.3-.8.2-.2.5-.3.8-.3 9.9 0 19.1 3.8 26.1 10.8 7 7 10.8 16.2 10.8 26.1 0 .3-.1.6-.3.8-.3.1-.6.3-.9.3M54.6 79.2h-9.2L34.5 44.1l-11 35.1h-9.1L0 29.9h10.5l9 34.2 10.3-34.2h9.7l10 34.2 9.2-34.2H69zm19.2-33.8h9.3v33.8h-9.3zm4.6-5.1c-3.2 0-5.7-2.4-5.7-5.4 0-3 2.6-5.4 5.7-5.4 3.3 0 5.9 2.3 5.9 5.4-.1 3.1-2.6 5.4-5.9 5.4m24.3 38.9H93V29.9h32.2v8.6h-22.5v12.1h21.2v8.3h-21.2zm121.7-52.7h-64.3c-6 0-10.8 4.9-10.8 10.8v33.4c0 6 4.9 10.8 10.8 10.8h64.3c6 0 10.8-4.9 10.8-10.8V37.4c.1-6-4.8-10.9-10.8-10.9zm-32.3 34.4c0 8.3-6.7 14.1-15.5 14.1-5.3 0-8.9-1.5-11.7-4.4-3-3-4.8-7.3-4.8-15.4V55c0-12.6 5.7-22.2 17.8-22.2 5.3 0 8.9 1.5 12.3 4.2.2.2.3.5.1.7l-4.1 6.1c-.2.2-.5.3-.7.1-2.5-1.8-4.6-2.9-7.9-2.9-4.7 0-7.2 3.5-8 8.3-.1.4.4.8.8.5 1.8-1.1 4.1-2 7.5-2 8.1 0 14.3 4.5 14.3 13v.1zm32.6-20.5H206v10h17.6v6.9H206v10h18.7v7.1H198V33.3h26.7v7.1zm-93.5 5h9.3v33.8h-9.3zm4.5-5.1c-3.2 0-5.7-2.4-5.7-5.4 0-3 2.6-5.4 5.7-5.4 3.3 0 5.9 2.3 5.9 5.4 0 3.1-2.5 5.4-5.9 5.4"/>
</svg>
